<svg xmlns="http://www.w3.org/2000/svg" viewBox="0 0 24 24"><path fill="currentColor" d="M12.15 6.9c-.95 0-2.41-1.08-3.96-1.04a5.85 5.85 0 0 0-4.96 3.01c-2.12 3.67-.55 9.1 1.52 12.09 1.01 1.45 2.2 3.09 3.8 3.04 1.51-.07 2.08-.99 3.93-.99 1.83 0 2.35.99 3.96.95 1.63-.03 2.67-1.48 3.67-2.95a13.05 13.05 0 0 0 1.67-3.41 5.3 5.3 0 0 1-.63-9.42 5.62 5.62 0 0 0-4.39-2.37c-2-.16-3.67 1.09-4.6 1.09zm3.38-3.07A5.25 5.25 0 0 0 16.78 0a5.4 5.4 0 0 0-3.54 1.82 5.02 5.02 0 0 0-1.27 3.71c1.34.1 2.71-.69 3.56-1.7"/></svg>